<mxfile host="app.diagrams.net" modified="2022-03-27T13:04:17.892Z" agent="5.0 (Windows)" etag="1RzQnKON2Omz7dgZoFYw" version="17.2.4" type="github">
  <diagram id="seKTO6PzNV8SWmcDrxcf" name="Page-1">
    <mxGraphModel dx="1038" dy="528" grid="0" gridSize="10" guides="0" tooltips="1" connect="1" arrows="1" fold="1" page="1" pageScale="1" pageWidth="827" pageHeight="1169" math="0" shadow="0">
      <root>
        <mxCell id="0" />
        <mxCell id="1" parent="0" />
      </root>
    </mxGraphModel>
  </diagram>
</mxfile>
